<svg width="33" height="38" viewBox="0 0 33 38" fill="none" xmlns="http://www.w3.org/2000/svg">
<path fill-rule="evenodd" clip-rule="evenodd" d="M32.0949 0.16075C32.6482 0.431939 33 1.00255 33 1.62859V36.3714C33 36.9974 32.6482 37.5681 32.0949 37.8393C31.5417 38.1104 30.885 38.0342 30.4057 37.6431L9.11538 20.2717C8.7366 19.9626 8.5161 19.4947 8.5161 19C8.5161 18.5053 8.7366 18.0374 9.11538 17.7283L30.4057 0.356886C30.885 -0.0341926 31.5417 -0.11044 32.0949 0.16075ZM12.669 19L29.8064 32.983V5.01703L12.669 19ZM1.59678 2.17151C2.47865 2.17151 3.19355 2.90065 3.19355 3.80008V34.2001C3.19355 35.0995 2.47865 35.8286 1.59678 35.8286C0.714901 35.8286 0 35.0995 0 34.2001V3.80008C0 2.90065 0.714901 2.17151 1.59678 2.17151Z" fill="white"/>
</svg>
