<svg width="28" height="48" viewBox="0 0 28 48" fill="none" xmlns="http://www.w3.org/2000/svg">
<path fill-rule="evenodd" clip-rule="evenodd" d="M10.2466 3.83424C12.6702 1.37922 15.9572 0 19.3846 0H25.8461C27.0357 0 28 0.976833 28 2.18182V10.9091C28 12.1141 27.0357 13.0909 25.8461 13.0909H19.3846V17.4545H25.8461C26.5094 17.4545 27.1356 17.7641 27.5438 18.2936C27.952 18.8232 28.0965 19.5137 27.9357 20.1655L25.7818 28.8928C25.5421 29.8641 24.6806 30.5455 23.6923 30.5455H19.3846V45.8182C19.3846 47.0232 18.4203 48 17.2308 48H8.61538C7.42584 48 6.46153 47.0232 6.46153 45.8182V30.5455H2.15384C0.964309 30.5455 0 29.5686 0 28.3636V19.6364C0 18.4314 0.964309 17.4545 2.15384 17.4545H6.46153V13.0909C6.46153 9.61898 7.82307 6.28926 10.2466 3.83424ZM19.3846 4.36364C17.0997 4.36364 14.9083 5.28311 13.2926 6.9198C11.6769 8.55648 10.7692 10.7763 10.7692 13.0909V19.6364C10.7692 20.8414 9.80491 21.8182 8.61538 21.8182H4.30769V26.1818H8.61538C9.80491 26.1818 10.7692 27.1587 10.7692 28.3636V43.6364H15.0769V28.3636C15.0769 27.1587 16.0412 26.1818 17.2308 26.1818H22.0106L23.0875 21.8182H17.2308C16.0412 21.8182 15.0769 20.8414 15.0769 19.6364V13.0909C15.0769 11.9336 15.5308 10.8237 16.3386 10.0054C17.1465 9.18701 18.2421 8.72727 19.3846 8.72727H23.6923V4.36364H19.3846Z" fill="white"/>
</svg>
