<svg width="52" height="44" viewBox="0 0 52 44" fill="none" xmlns="http://www.w3.org/2000/svg">
<path fill-rule="evenodd" clip-rule="evenodd" d="M30.8042 5.09427C27.9915 4.26798 25.0185 4.17881 22.1627 4.83507C19.3069 5.49132 16.6614 6.87162 14.4729 8.84717C12.2844 10.8227 10.6243 13.3291 9.64754 16.1325C9.24835 17.2782 8.01027 17.8783 6.8822 17.4729C5.75413 17.0675 5.16325 15.81 5.56244 14.6644C6.7834 11.1601 8.8585 8.0271 11.5941 5.55767C14.3297 3.08823 17.6367 1.36285 21.2064 0.542532C24.7762 -0.27779 28.4924 -0.166322 32.0082 0.866536C35.5129 1.89611 38.7047 3.80776 41.2877 6.424L47.6667 12.5117V4.39583C47.6667 3.18052 48.6367 2.19531 49.8333 2.19531C51.03 2.19531 52 3.18052 52 4.39583V17.599C52 18.8143 51.03 19.7995 49.8333 19.7995H36.8334C35.6367 19.7995 34.6667 18.8143 34.6667 17.599C34.6667 16.3836 35.6367 15.3984 36.8334 15.3984H44.3635L38.2963 9.60833C38.2798 9.59258 38.2635 9.57657 38.2475 9.5603C36.1776 7.45702 33.6169 5.92056 30.8042 5.09427ZM0 26.4011C0 25.1858 0.970048 24.2006 2.16666 24.2006H15.1666C16.3633 24.2006 17.3333 25.1858 17.3333 26.4011C17.3333 27.6164 16.3633 28.6016 15.1666 28.6016H7.63654L13.7037 34.3917C13.7202 34.4074 13.7364 34.4234 13.7524 34.4397C15.8223 36.543 18.3831 38.0794 21.1958 38.9057C24.0084 39.732 26.9814 39.8212 29.8372 39.1649C32.693 38.5087 35.3386 37.1284 37.527 35.1528C39.7155 33.1773 41.3756 30.6709 42.3524 27.8675C42.7516 26.7218 43.9897 26.1217 45.1177 26.5271C46.2458 26.9325 46.8367 28.19 46.4375 29.3356C45.2165 32.8399 43.1414 35.9729 40.4058 38.4423C37.6702 40.9118 34.3632 42.6371 30.7935 43.4575C27.2237 44.2778 23.5076 44.1663 19.9917 43.1335C16.487 42.1039 13.2952 40.1922 10.7122 37.576L4.33333 31.4884V39.6042C4.33333 40.8195 3.36328 41.8048 2.16666 41.8048C0.970048 41.8048 0 40.8195 0 39.6042V26.4011Z" fill="white"/>
</svg>
