<svg width="48" height="48" viewBox="0 0 48 48" fill="none" xmlns="http://www.w3.org/2000/svg">
<path fill-rule="evenodd" clip-rule="evenodd" d="M13.0909 4.36364C8.27097 4.36364 4.36364 8.27097 4.36364 13.0909V34.9091C4.36364 39.729 8.27097 43.6364 13.0909 43.6364H34.9091C39.729 43.6364 43.6364 39.729 43.6364 34.9091V13.0909C43.6364 8.27097 39.729 4.36364 34.9091 4.36364H13.0909ZM0 13.0909C0 5.861 5.861 0 13.0909 0H34.9091C42.139 0 48 5.861 48 13.0909V34.9091C48 42.139 42.139 48 34.9091 48H13.0909C5.861 48 0 42.139 0 34.9091V13.0909ZM33.8181 12C33.8181 10.795 34.7949 9.81818 35.9999 9.81818H36.0217C37.2267 9.81818 38.2036 10.795 38.2036 12C38.2036 13.205 37.2267 14.1818 36.0217 14.1818H35.9999C34.7949 14.1818 33.8181 13.205 33.8181 12ZM25.0545 17.431C23.6926 17.229 22.3017 17.4616 21.0797 18.0957C19.8577 18.7298 18.8667 19.7331 18.2477 20.9629C17.6287 22.1926 17.4133 23.5863 17.632 24.9455C17.8507 26.3048 18.4925 27.5605 19.466 28.534C20.4395 29.5075 21.6952 30.1492 23.0545 30.368C24.4137 30.5867 25.8074 30.3712 27.0371 29.7523C28.2669 29.1333 29.2701 28.1423 29.9042 26.9203C30.5383 25.6982 30.7709 24.3074 30.569 22.9455C30.363 21.5564 29.7157 20.2703 28.7227 19.2773C27.7297 18.2843 26.4436 17.637 25.0545 17.431ZM19.0699 14.2225C21.1067 13.1657 23.4248 12.778 25.6945 13.1145C28.0098 13.4579 30.1532 14.5367 31.8082 16.1917C33.4633 17.8468 34.5421 19.9902 34.8854 22.3055C35.222 24.5752 34.8343 26.8933 33.7775 28.93C32.7207 30.9668 31.0486 32.6184 28.999 33.65C26.9494 34.6816 24.6267 35.0407 22.3612 34.6762C20.0958 34.3116 18.003 33.242 16.3805 31.6195C14.7579 29.997 13.6883 27.9042 13.3238 25.6388C12.9593 23.3733 13.3183 21.0506 14.35 19.001C15.3816 16.9514 17.0332 15.2793 19.0699 14.2225Z" fill="white"/>
</svg>
