<svg width="40" height="33" viewBox="0 0 40 33" fill="none" xmlns="http://www.w3.org/2000/svg">
<path fill-rule="evenodd" clip-rule="evenodd" d="M3.83014 4.68224L20 16.0955L36.1699 4.68224C35.8692 4.08269 35.2508 3.66667 34.5455 3.66667H5.45455C4.74916 3.66667 4.13083 4.08269 3.83014 4.68224ZM36.3636 9.02121L21.0427 19.8353C20.4166 20.2772 19.5834 20.2772 18.9573 19.8353L3.63636 9.02121V27.5C3.63636 28.5041 4.4587 29.3333 5.45455 29.3333H34.5455C35.5413 29.3333 36.3636 28.5041 36.3636 27.5V9.02121ZM0 5.5C0 2.47081 2.45039 0 5.45455 0H34.5455C37.5496 0 40 2.47081 40 5.5V27.5C40 30.5292 37.5496 33 34.5455 33H5.45455C2.45039 33 0 30.5292 0 27.5V5.5Z" fill="white"/>
</svg>
