<svg width="43" height="31" viewBox="0 0 43 31" fill="none" xmlns="http://www.w3.org/2000/svg">
<path fill-rule="evenodd" clip-rule="evenodd" d="M0 2.21429C0 0.991369 0.962588 0 2.15 0H40.85C42.0374 0 43 0.991369 43 2.21429C43 3.4372 42.0374 4.42857 40.85 4.42857H2.15C0.962588 4.42857 0 3.4372 0 2.21429ZM0 15.5C0 14.2771 0.962588 13.2857 2.15 13.2857H40.85C42.0374 13.2857 43 14.2771 43 15.5C43 16.7229 42.0374 17.7143 40.85 17.7143H2.15C0.962588 17.7143 0 16.7229 0 15.5ZM0 28.7857C0 27.5628 0.962588 26.5714 2.15 26.5714H40.85C42.0374 26.5714 43 27.5628 43 28.7857C43 30.0086 42.0374 31 40.85 31H2.15C0.962588 31 0 30.0086 0 28.7857Z" fill="white"/>
</svg>
