<svg width="34" height="38" viewBox="0 0 34 38" fill="none" xmlns="http://www.w3.org/2000/svg">
<path fill-rule="evenodd" clip-rule="evenodd" d="M0.932498 0.16075C1.50249 -0.11044 2.17906 -0.0341926 2.67289 0.356886L24.6084 17.7283C24.9987 18.0374 25.2259 18.5053 25.2259 19C25.2259 19.4947 24.9987 19.9626 24.6084 20.2717L2.67289 37.6431C2.17906 38.0342 1.50249 38.1104 0.932498 37.8393C0.362505 37.5681 0 36.9974 0 36.3714V1.62859C0 1.00255 0.362505 0.431939 0.932498 0.16075ZM3.29033 5.01703V32.983L20.9471 19L3.29033 5.01703ZM32.3548 2.17151C33.2634 2.17151 34 2.90065 34 3.80008V34.2001C34 35.0995 33.2634 35.8286 32.3548 35.8286C31.4462 35.8286 30.7097 35.0995 30.7097 34.2001V3.80008C30.7097 2.90065 31.4462 2.17151 32.3548 2.17151Z" fill="white"/>
</svg>
