<svg width="30" height="39" viewBox="0 0 30 39" fill="none" xmlns="http://www.w3.org/2000/svg">
<path fill-rule="evenodd" clip-rule="evenodd" d="M0 2.16667C0 0.97005 0.959389 0 2.14285 0H10.7143C11.8977 0 12.8571 0.97005 12.8571 2.16667V36.8333C12.8571 38.03 11.8977 39 10.7143 39H2.14285C0.959389 39 0 38.03 0 36.8333V2.16667ZM17.1429 2.16667C17.1429 0.97005 18.1023 0 19.2857 0H27.8571C29.0406 0 30 0.97005 30 2.16667V36.8333C30 38.03 29.0406 39 27.8571 39H19.2857C18.1023 39 17.1429 38.03 17.1429 36.8333V2.16667Z" fill="white"/>
</svg>
