<svg width="50" height="29" viewBox="0 0 50 29" fill="none" xmlns="http://www.w3.org/2000/svg">
<path fill-rule="evenodd" clip-rule="evenodd" d="M25 4.425C17.1152 4.425 9.50136 7.37313 3.58649 12.7164C2.69205 13.5244 1.32782 13.4363 0.539392 12.5197C-0.249032 11.603 -0.163089 10.2049 0.731351 9.3969C7.43487 3.34121 16.0639 0 25 0C33.9361 0 42.5651 3.34121 49.2686 9.3969C50.1631 10.2049 50.249 11.603 49.4606 12.5197C48.6722 13.4363 47.308 13.5244 46.4135 12.7164C40.4986 7.37313 32.8848 4.425 25 4.425ZM25.0864 15.4864C20.0377 15.4864 15.1487 17.2997 11.2694 20.6111C10.3533 21.3931 8.992 21.2659 8.22891 20.327C7.46583 19.3881 7.58991 17.993 8.50606 17.211C13.1612 13.2373 19.028 11.0613 25.0864 11.0613C31.1447 11.0613 37.0115 13.2373 41.6666 17.211C42.5828 17.993 42.7069 19.3881 41.9438 20.327C41.1807 21.2659 39.8194 21.3931 38.9033 20.6111C35.024 17.2997 30.135 15.4864 25.0864 15.4864ZM25.0108 26.5467C22.7703 26.5467 20.5854 27.2612 18.759 28.591C17.787 29.2987 16.4392 29.0649 15.7487 28.0687C15.0581 27.0726 15.2863 25.6914 16.2583 24.9837C18.8153 23.1219 21.8742 22.1217 25.0108 22.1217C28.1474 22.1217 31.2063 23.1219 33.7633 24.9837C34.7353 25.6914 34.9634 27.0726 34.2729 28.0687C33.5823 29.0649 32.2346 29.2987 31.2626 28.591C29.4361 27.2612 27.2512 26.5467 25.0108 26.5467Z" fill="white"/>
</svg>
